<svg viewBox="0 0 1200 1200" xmlns="http://www.w3.org/2000/svg"><mask id="b" x="0" y="0" width="1200" height="1200"><path fill="url(#a)" d="M0 0h1200v1200H0z"/></mask><path fill="#000336" d="M0 0h1200v1200H0z"/><g style="transform-origin:center center" stroke="#4c4e72" stroke-width=".72" mask="url(#b)"><path fill="none" d="M0 0h50v50H0zm50 0h50v50H50z"/><path fill="#4c4e7296" d="M100 0h50v50h-50z"/><path fill="none" d="M150 0h50v50h-50zm150 0h50v50h-50z"/><path fill="#4c4e728d" d="M350 0h50v50h-50z"/><path fill="none" d="M400 0h50v50h-50z"/><path fill="#4c4e7267" d="M450 0h50v50h-50z"/><path fill="#4c4e72d5" d="M500 0h50v50h-50z"/><path fill="none" d="M550 0h50v50h-50zm50 0h50v50h-50z"/><path fill="#4c4e720f" d="M650 0h50v50h-50z"/><path fill="none" d="M700 0h50v50h-50zm50 0h50v50h-50zm100 0h50v50h-50z"/><path fill="#4c4e7234" d="M900 0h50v50h-50z"/><path fill="none" d="M950 0h50v50h-50zm50 0h50v50h-50z"/><path fill="#4c4e7249" d="M1100 0h50v50h-50z"/><path fill="none" d="M1150 0h50v50h-50zM0 50h50v50H0zm50 0h50v50H50zm50 0h50v50h-50zm50 0h50v50h-50zm50 0h50v50h-50zm100 0h50v50h-50z"/><path fill="#4c4e7226" d="M350 50h50v50h-50z"/><path fill="none" d="M400 50h50v50h-50z"/><path fill="#4c4e72c5" d="M450 50h50v50h-50z"/><path fill="none" d="M500 50h50v50h-50zm50 0h50v50h-50z"/><path fill="#4c4e7248" d="M650 50h50v50h-50z"/><path fill="#4c4e7234" d="M700 50h50v50h-50z"/><path fill="#4c4e721c" d="M750 50h50v50h-50z"/><path fill="#4c4e7284" d="M900 50h50v50h-50z"/><path fill="none" d="M1000 50h50v50h-50z"/><path fill="#4c4e72b2" d="M1100 50h50v50h-50z"/><path fill="none" d="M1150 50h50v50h-50z"/><path fill="#4c4e726f" d="M0 100h50v50H0z"/><path fill="none" d="M50 100h50v50H50z"/><path fill="#4c4e72e0" d="M150 100h50v50h-50z"/><path fill="none" d="M200 100h50v50h-50zm50 0h50v50h-50zm50 0h50v50h-50zm50 0h50v50h-50z"/><path fill="#4c4e72ad" d="M400 100h50v50h-50z"/><path fill="none" d="M450 100h50v50h-50zm50 0h50v50h-50z"/><path fill="#4c4e729a" d="M550 100h50v50h-50z"/><path fill="none" d="M600 100h50v50h-50z"/><path fill="#4c4e729f" d="M650 100h50v50h-50z"/><path fill="none" d="M700 100h50v50h-50z"/><path fill="#4c4e7258" d="M750 100h50v50h-50z"/><path fill="none" d="M800 100h50v50h-50zm100 0h50v50h-50z"/><path fill="#4c4e721c" d="M950 100h50v50h-50z"/><path fill="none" d="M1000 100h50v50h-50zm50 0h50v50h-50zm50 0h50v50h-50z"/><path fill="#4c4e72b4" d="M0 150h50v50H0z"/><path fill="#4c4e720c" d="M100 150h50v50h-50z"/><path fill="none" d="M200 150h50v50h-50zm50 0h50v50h-50zm150 0h50v50h-50zm50 0h50v50h-50z"/><path fill="#4c4e7266" d="M500 150h50v50h-50z"/><path fill="#4c4e7256" d="M600 150h50v50h-50z"/><path fill="none" d="M650 150h50v50h-50zm50 0h50v50h-50zm50 0h50v50h-50z"/><path fill="#4c4e7272" d="M850 150h50v50h-50z"/><path fill="none" d="M900 150h50v50h-50zm50 0h50v50h-50zm50 0h50v50h-50zm50 0h50v50h-50z"/><path fill="#4c4e720d" d="M1150 150h50v50h-50z"/><path fill="none" d="M100 200h50v50h-50z"/><path fill="#4c4e72d2" d="M200 200h50v50h-50z"/><path fill="none" d="M250 200h50v50h-50z"/><path fill="#4c4e720d" d="M300 200h50v50h-50z"/><path fill="none" d="M350 200h50v50h-50zm50 0h50v50h-50zm50 0h50v50h-50zm50 0h50v50h-50z"/><path fill="#4c4e724d" d="M550 200h50v50h-50z"/><path fill="none" d="M600 200h50v50h-50zm50 0h50v50h-50zm50 0h50v50h-50zm50 0h50v50h-50zm50 0h50v50h-50zm50 0h50v50h-50zm50 0h50v50h-50zm50 0h50v50h-50zm100 0h50v50h-50zm50 0h50v50h-50zM50 250h50v50H50zm100 0h50v50h-50z"/><path fill="#4c4e72fb" d="M200 250h50v50h-50z"/><path fill="none" d="M350 250h50v50h-50zm100 0h50v50h-50z"/><path fill="#4c4e7238" d="M500 250h50v50h-50z"/><path fill="none" d="M550 250h50v50h-50zm50 0h50v50h-50zm50 0h50v50h-50z"/><path fill="#4c4e725d" d="M700 250h50v50h-50z"/><path fill="none" d="M750 250h50v50h-50zm100 0h50v50h-50zm100 0h50v50h-50zm50 0h50v50h-50zm50 0h50v50h-50zm50 0h50v50h-50zm50 0h50v50h-50zM50 300h50v50H50zm100 0h50v50h-50zm100 0h50v50h-50z"/><path fill="#4c4e72f8" d="M400 300h50v50h-50z"/><path fill="none" d="M450 300h50v50h-50z"/><path fill="#4c4e7291" d="M600 300h50v50h-50z"/><path fill="#4c4e7250" d="M650 300h50v50h-50z"/><path fill="#4c4e7268" d="M700 300h50v50h-50z"/><path fill="none" d="M750 300h50v50h-50zm50 0h50v50h-50z"/><path fill="#4c4e722d" d="M850 300h50v50h-50z"/><path fill="none" d="M900 300h50v50h-50zm50 0h50v50h-50zm50 0h50v50h-50z"/><path fill="#4c4e723f" d="M1100 300h50v50h-50z"/><path fill="none" d="M1150 300h50v50h-50zM0 350h50v50H0zm50 0h50v50H50z"/><path fill="#4c4e7207" d="M100 350h50v50h-50z"/><path fill="#4c4e7206" d="M150 350h50v50h-50z"/><path fill="none" d="M200 350h50v50h-50zm50 0h50v50h-50zm100 0h50v50h-50z"/><path fill="#4c4e72df" d="M400 350h50v50h-50z"/><path fill="#4c4e72a2" d="M450 350h50v50h-50z"/><path fill="#4c4e72f9" d="M500 350h50v50h-50z"/><path fill="none" d="M600 350h50v50h-50zm100 0h50v50h-50z"/><path fill="#4c4e7297" d="M800 350h50v50h-50z"/><path fill="none" d="M850 350h50v50h-50zm50 0h50v50h-50z"/><path fill="#4c4e720b" d="M950 350h50v50h-50z"/><path fill="#4c4e7247" d="M1000 350h50v50h-50z"/><path fill="none" d="M1050 350h50v50h-50zm100 0h50v50h-50zM0 400h50v50H0zm50 0h50v50H50z"/><path fill="#4c4e72bc" d="M150 400h50v50h-50z"/><path fill="none" d="M200 400h50v50h-50z"/><path fill="#4c4e72d0" d="M300 400h50v50h-50z"/><path fill="none" d="M350 400h50v50h-50zm50 0h50v50h-50z"/><path fill="#4c4e72c7" d="M500 400h50v50h-50z"/><path fill="none" d="M550 400h50v50h-50zm50 0h50v50h-50z"/><path fill="#4c4e7250" d="M700 400h50v50h-50z"/><path fill="none" d="M750 400h50v50h-50zm50 0h50v50h-50zm100 0h50v50h-50z"/><path fill="#4c4e720d" d="M950 400h50v50h-50z"/><path fill="none" d="M1000 400h50v50h-50z"/><path fill="#4c4e720a" d="M1050 400h50v50h-50z"/><path fill="none" d="M1150 400h50v50h-50zM50 450h50v50H50zm50 0h50v50h-50z"/><path fill="#4c4e720e" d="M150 450h50v50h-50z"/><path fill="#4c4e725a" d="M200 450h50v50h-50z"/><path fill="#4c4e7245" d="M250 450h50v50h-50z"/><path fill="none" d="M300 450h50v50h-50zm50 0h50v50h-50zm50 0h50v50h-50z"/><path fill="#4c4e7261" d="M500 450h50v50h-50z"/><path fill="none" d="M550 450h50v50h-50zm50 0h50v50h-50z"/><path fill="#4c4e72dd" d="M650 450h50v50h-50z"/><path fill="none" d="M700 450h50v50h-50zm50 0h50v50h-50zm50 0h50v50h-50zm100 0h50v50h-50z"/><path fill="#4c4e7268" d="M950 450h50v50h-50z"/><path fill="none" d="M1000 450h50v50h-50zm50 0h50v50h-50zm50 0h50v50h-50zm50 0h50v50h-50zM0 500h50v50H0zm50 0h50v50H50z"/><path fill="#4c4e728e" d="M150 500h50v50h-50z"/><path fill="none" d="M200 500h50v50h-50zm100 0h50v50h-50zm50 0h50v50h-50zm100 0h50v50h-50zm50 0h50v50h-50zm50 0h50v50h-50zm50 0h50v50h-50z"/><path fill="#4c4e72fe" d="M650 500h50v50h-50z"/><path fill="none" d="M750 500h50v50h-50zm50 0h50v50h-50zm50 0h50v50h-50z"/><path fill="#4c4e721b" d="M900 500h50v50h-50z"/><path fill="#4c4e72cc" d="M1050 500h50v50h-50z"/><path fill="none" d="M1150 500h50v50h-50zM0 550h50v50H0zm100 0h50v50h-50zm100 0h50v50h-50zm100 0h50v50h-50zm50 0h50v50h-50z"/><path fill="#4c4e725f" d="M400 550h50v50h-50z"/><path fill="none" d="M450 550h50v50h-50zm50 0h50v50h-50zm50 0h50v50h-50zm50 0h50v50h-50zm50 0h50v50h-50z"/><path fill="#4c4e725a" d="M750 550h50v50h-50z"/><path fill="none" d="M850 550h50v50h-50zm100 0h50v50h-50zm50 0h50v50h-50z"/><path fill="#4c4e7230" d="M1150 550h50v50h-50z"/><path fill="#4c4e72dd" d="M50 600h50v50H50z"/><path fill="#4c4e72fd" d="M100 600h50v50h-50z"/><path fill="none" d="M150 600h50v50h-50zm50 0h50v50h-50zm50 0h50v50h-50z"/><path fill="#4c4e729f" d="M300 600h50v50h-50z"/><path fill="#4c4e72cf" d="M350 600h50v50h-50z"/><path fill="#4c4e72c4" d="M650 600h50v50h-50z"/><path fill="none" d="M700 600h50v50h-50zm100 0h50v50h-50z"/><path fill="#4c4e7273" d="M850 600h50v50h-50z"/><path fill="#4c4e7234" d="M900 600h50v50h-50z"/><path fill="none" d="M950 600h50v50h-50z"/><path fill="#4c4e72d2" d="M1000 600h50v50h-50z"/><path fill="none" d="M1050 600h50v50h-50zm50 0h50v50h-50z"/><path fill="#4c4e72b9" d="M1150 600h50v50h-50z"/><path fill="none" d="M100 650h50v50h-50z"/><path fill="#4c4e72b0" d="M200 650h50v50h-50z"/><path fill="none" d="M250 650h50v50h-50z"/><path fill="#4c4e727f" d="M300 650h50v50h-50z"/><path fill="none" d="M350 650h50v50h-50zm150 0h50v50h-50zm50 0h50v50h-50z"/><path fill="#4c4e7258" d="M650 650h50v50h-50z"/><path fill="none" d="M700 650h50v50h-50zm50 0h50v50h-50z"/><path fill="#4c4e7266" d="M800 650h50v50h-50z"/><path fill="#4c4e729c" d="M950 650h50v50h-50z"/><path fill="none" d="M1050 650h50v50h-50zm100 0h50v50h-50zM0 700h50v50H0z"/><path fill="#4c4e7252" d="M50 700h50v50H50z"/><path fill="none" d="M200 700h50v50h-50zm100 0h50v50h-50z"/><path fill="#4c4e7251" d="M500 700h50v50h-50z"/><path fill="none" d="M700 700h50v50h-50zm50 0h50v50h-50zm50 0h50v50h-50zm50 0h50v50h-50zm50 0h50v50h-50zm50 0h50v50h-50z"/><path fill="#4c4e72e9" d="M1050 700h50v50h-50z"/><path fill="none" d="M1100 700h50v50h-50zm50 0h50v50h-50zM50 750h50v50H50z"/><path fill="#4c4e726b" d="M100 750h50v50h-50z"/><path fill="none" d="M200 750h50v50h-50zm50 0h50v50h-50zm100 0h50v50h-50z"/><path fill="#4c4e72e2" d="M450 750h50v50h-50z"/><path fill="none" d="M500 750h50v50h-50z"/><path fill="#4c4e7241" d="M550 750h50v50h-50z"/><path fill="none" d="M650 750h50v50h-50zm50 0h50v50h-50z"/><path fill="#4c4e724a" d="M750 750h50v50h-50z"/><path fill="#4c4e7243" d="M800 750h50v50h-50z"/><path fill="#4c4e7293" d="M950 750h50v50h-50z"/><path fill="none" d="M1000 750h50v50h-50zm150 0h50v50h-50zM0 800h50v50H0zm50 0h50v50H50zm50 0h50v50h-50zm50 0h50v50h-50zm50 0h50v50h-50zm50 0h50v50h-50zm50 0h50v50h-50zm50 0h50v50h-50zm50 0h50v50h-50z"/><path fill="#4c4e7267" d="M500 800h50v50h-50z"/><path fill="none" d="M600 800h50v50h-50zm50 0h50v50h-50z"/><path fill="#4c4e7284" d="M700 800h50v50h-50z"/><path fill="none" d="M850 800h50v50h-50zm50 0h50v50h-50zm50 0h50v50h-50zm100 0h50v50h-50zm50 0h50v50h-50zm50 0h50v50h-50zM0 850h50v50H0z"/><path fill="#4c4e7223" d="M50 850h50v50H50z"/><path fill="none" d="M100 850h50v50h-50z"/><path fill="#4c4e72a5" d="M200 850h50v50h-50z"/><path fill="none" d="M250 850h50v50h-50zm100 0h50v50h-50zm50 0h50v50h-50z"/><path fill="#4c4e72d9" d="M450 850h50v50h-50z"/><path fill="none" d="M600 850h50v50h-50z"/><path fill="#4c4e7220" d="M650 850h50v50h-50z"/><path fill="none" d="M750 850h50v50h-50zm50 0h50v50h-50z"/><path fill="#4c4e72e6" d="M900 850h50v50h-50z"/><path fill="#4c4e722d" d="M950 850h50v50h-50z"/><path fill="none" d="M1000 850h50v50h-50z"/><path fill="#4c4e72c9" d="M1050 850h50v50h-50z"/><path fill="none" d="M1100 850h50v50h-50z"/><path fill="#4c4e72d0" d="M0 900h50v50H0z"/><path fill="none" d="M100 900h50v50h-50z"/><path fill="#4c4e7298" d="M150 900h50v50h-50z"/><path fill="none" d="M250 900h50v50h-50z"/><path fill="#4c4e726e" d="M300 900h50v50h-50z"/><path fill="none" d="M450 900h50v50h-50zm50 0h50v50h-50zm50 0h50v50h-50z"/><path fill="#4c4e721a" d="M600 900h50v50h-50z"/><path fill="#4c4e72f9" d="M650 900h50v50h-50z"/><path fill="#4c4e721b" d="M700 900h50v50h-50z"/><path fill="none" d="M750 900h50v50h-50z"/><path fill="#4c4e72d3" d="M800 900h50v50h-50z"/><path fill="none" d="M850 900h50v50h-50zm50 0h50v50h-50zm50 0h50v50h-50z"/><path fill="#4c4e72da" d="M1000 900h50v50h-50z"/><path fill="none" d="M1050 900h50v50h-50zM0 950h50v50H0z"/><path fill="#4c4e7269" d="M50 950h50v50H50z"/><path fill="none" d="M200 950h50v50h-50zm100 0h50v50h-50z"/><path fill="#4c4e7255" d="M350 950h50v50h-50z"/><path fill="none" d="M400 950h50v50h-50zm50 0h50v50h-50zm50 0h50v50h-50zm150 0h50v50h-50zm50 0h50v50h-50zm50 0h50v50h-50zm50 0h50v50h-50zm150 0h50v50h-50z"/><path fill="#4c4e7219" d="M1000 950h50v50h-50z"/><path fill="none" d="M1050 950h50v50h-50z"/><path fill="#4c4e726b" d="M1100 950h50v50h-50z"/><path fill="none" d="M1150 950h50v50h-50zM0 1000h50v50H0z"/><path fill="#4c4e7270" d="M50 1000h50v50H50z"/><path fill="none" d="M150 1000h50v50h-50z"/><path fill="#4c4e72fb" d="M200 1000h50v50h-50z"/><path fill="none" d="M250 1000h50v50h-50z"/><path fill="#4c4e7213" d="M300 1000h50v50h-50z"/><path fill="none" d="M350 1000h50v50h-50zm50 0h50v50h-50zm100 0h50v50h-50z"/><path fill="#4c4e72a3" d="M550 1000h50v50h-50z"/><path fill="none" d="M600 1000h50v50h-50zm100 0h50v50h-50z"/><path fill="#4c4e72ec" d="M750 1000h50v50h-50z"/><path fill="none" d="M800 1000h50v50h-50zm50 0h50v50h-50zm50 0h50v50h-50z"/><path fill="#4c4e7287" d="M950 1000h50v50h-50z"/><path fill="none" d="M1050 1000h50v50h-50zm50 0h50v50h-50z"/><path fill="#4c4e729d" d="M1150 1000h50v50h-50z"/><path fill="none" d="M0 1050h50v50H0zm50 0h50v50H50zm50 0h50v50h-50zm50 0h50v50h-50z"/><path fill="#4c4e72e9" d="M200 1050h50v50h-50z"/><path fill="none" d="M250 1050h50v50h-50zm100 0h50v50h-50zm50 0h50v50h-50z"/><path fill="#4c4e7242" d="M450 1050h50v50h-50z"/><path fill="none" d="M550 1050h50v50h-50zm50 0h50v50h-50z"/><path fill="#4c4e7222" d="M650 1050h50v50h-50z"/><path fill="#4c4e729f" d="M700 1050h50v50h-50z"/><path fill="none" d="M750 1050h50v50h-50zm50 0h50v50h-50zm50 0h50v50h-50zm50 0h50v50h-50zm50 0h50v50h-50zm50 0h50v50h-50z"/><path fill="#4c4e7274" d="M1150 1050h50v50h-50z"/><path fill="none" d="M50 1100h50v50H50zm50 0h50v50h-50z"/><path fill="#4c4e723e" d="M150 1100h50v50h-50z"/><path fill="#4c4e72af" d="M200 1100h50v50h-50z"/><path fill="none" d="M250 1100h50v50h-50zm50 0h50v50h-50zm50 0h50v50h-50zm50 0h50v50h-50zm100 0h50v50h-50zm50 0h50v50h-50zm50 0h50v50h-50z"/><path fill="#4c4e72fa" d="M650 1100h50v50h-50z"/><path fill="none" d="M750 1100h50v50h-50z"/><path fill="#4c4e7296" d="M800 1100h50v50h-50z"/><path fill="#4c4e7258" d="M850 1100h50v50h-50z"/><path fill="none" d="M900 1100h50v50h-50zm50 0h50v50h-50z"/><path fill="#4c4e72c0" d="M1050 1100h50v50h-50z"/><path fill="none" d="M1100 1100h50v50h-50zM0 1150h50v50H0z"/><path fill="#4c4e72cd" d="M100 1150h50v50h-50z"/><path fill="#4c4e7202" d="M150 1150h50v50h-50z"/><path fill="#4c4e72b1" d="M200 1150h50v50h-50z"/><path fill="#4c4e72ca" d="M250 1150h50v50h-50z"/><path fill="none" d="M300 1150h50v50h-50z"/><path fill="#4c4e726d" d="M350 1150h50v50h-50z"/><path fill="none" d="M400 1150h50v50h-50z"/><path fill="#4c4e7280" d="M450 1150h50v50h-50z"/><path fill="none" d="M500 1150h50v50h-50z"/><path fill="#4c4e72c3" d="M600 1150h50v50h-50z"/><path fill="none" d="M650 1150h50v50h-50z"/><path fill="#4c4e72ac" d="M700 1150h50v50h-50z"/><path fill="none" d="M750 1150h50v50h-50zm50 0h50v50h-50zm100 0h50v50h-50z"/><path fill="#4c4e7237" d="M950 1150h50v50h-50z"/><path fill="none" d="M1000 1150h50v50h-50z"/><path fill="#4c4e72cf" d="M1050 1150h50v50h-50z"/><path fill="none" d="M1100 1150h50v50h-50z"/></g><path fill="#f3f3f3" filter="url(#c)" opacity=".8" d="M0 0h1200v1200H0z"/><defs><radialGradient id="a"><stop offset="0" stop-color="#fff"/><stop offset="1" stop-color="#fff"/></radialGradient><filter id="c" x="-480" y="-480" width="1680" height="1680" filterUnits="userSpaceOnUse" primitiveUnits="userSpaceOnUse" color-interpolation-filters="linearRGB"><feTurbulence type="fractalNoise" baseFrequency=".115" numOctaves="4" seed="15" stitchTiles="no-stitch" x="0" y="0" width="1200" height="1200" result="turbulence"/><feSpecularLighting surfaceScale="10" specularConstant=".19" specularExponent="20" lighting-color="#fff" x="0" y="0" width="1200" height="1200" in="turbulence" result="specularLighting"><feDistantLight azimuth="3" elevation="100"/></feSpecularLighting></filter></defs></svg>