<svg viewBox="0 0 1200 1200" xmlns="http://www.w3.org/2000/svg"><mask id="b" x="0" y="0" width="1200" height="1200"><path fill="url(#a)" d="M0 0h1200v1200H0z"/></mask><path fill="#fff" d="M0 0h1200v1200H0z"/><g style="transform-origin:center center" stroke="#cce6ff" stroke-width=".72" mask="url(#b)"><path fill="#cce6ff21" d="M0 0h50v50H0z"/><path fill="none" d="M50 0h50v50H50zm100 0h50v50h-50zm50 0h50v50h-50zm300 0h50v50h-50zm100 0h50v50h-50z"/><path fill="#cce6ffee" d="M750 0h50v50h-50z"/><path fill="none" d="M800 0h50v50h-50z"/><path fill="#cce6ff2a" d="M850 0h50v50h-50z"/><path fill="#cce6ff4c" d="M950 0h50v50h-50z"/><path fill="none" d="M1150 0h50v50h-50z"/><path fill="#cce6ff4c" d="M50 50h50v50H50z"/><path fill="none" d="M150 50h50v50h-50zm50 0h50v50h-50z"/><path fill="#cce6ff5b" d="M250 50h50v50h-50z"/><path fill="none" d="M300 50h50v50h-50zm50 0h50v50h-50zm50 0h50v50h-50zm50 0h50v50h-50z"/><path fill="#cce6ff7f" d="M550 50h50v50h-50z"/><path fill="none" d="M650 50h50v50h-50z"/><path fill="#cce6ffd0" d="M700 50h50v50h-50z"/><path fill="none" d="M750 50h50v50h-50zm50 0h50v50h-50zm50 0h50v50h-50zm50 0h50v50h-50z"/><path fill="#cce6ff86" d="M1000 50h50v50h-50z"/><path fill="#cce6ffa0" d="M1150 50h50v50h-50z"/><path fill="none" d="M0 100h50v50H0zm50 0h50v50H50z"/><path fill="#cce6ff86" d="M100 100h50v50h-50z"/><path fill="none" d="M200 100h50v50h-50z"/><path fill="#cce6ffbe" d="M300 100h50v50h-50z"/><path fill="#cce6ff32" d="M350 100h50v50h-50z"/><path fill="none" d="M400 100h50v50h-50zm50 0h50v50h-50zm50 0h50v50h-50z"/><path fill="#cce6ff4d" d="M550 100h50v50h-50z"/><path fill="#cce6ffb1" d="M600 100h50v50h-50z"/><path fill="none" d="M650 100h50v50h-50z"/><path fill="#cce6ff66" d="M700 100h50v50h-50z"/><path fill="none" d="M750 100h50v50h-50z"/><path fill="#cce6ffeb" d="M850 100h50v50h-50z"/><path fill="#cce6ff75" d="M950 100h50v50h-50z"/><path fill="none" d="M1050 100h50v50h-50zm100 0h50v50h-50zM0 150h50v50H0zm50 0h50v50H50zm150 0h50v50h-50zm50 0h50v50h-50z"/><path fill="#cce6ffe9" d="M350 150h50v50h-50z"/><path fill="none" d="M400 150h50v50h-50zm50 0h50v50h-50z"/><path fill="#cce6ffcd" d="M500 150h50v50h-50z"/><path fill="none" d="M550 150h50v50h-50z"/><path fill="#cce6ff6d" d="M650 150h50v50h-50z"/><path fill="#cce6ff52" d="M750 150h50v50h-50z"/><path fill="none" d="M800 150h50v50h-50z"/><path fill="#cce6ff1a" d="M850 150h50v50h-50z"/><path fill="none" d="M900 150h50v50h-50z"/><path fill="#cce6ff56" d="M950 150h50v50h-50z"/><path fill="none" d="M1000 150h50v50h-50zm50 0h50v50h-50z"/><path fill="#cce6ff58" d="M1150 150h50v50h-50z"/><path fill="none" d="M0 200h50v50H0z"/><path fill="#cce6ff4a" d="M50 200h50v50H50z"/><path fill="none" d="M100 200h50v50h-50zm50 0h50v50h-50zm100 0h50v50h-50zm50 0h50v50h-50zm50 0h50v50h-50zm50 0h50v50h-50z"/><path fill="#cce6ffc8" d="M450 200h50v50h-50z"/><path fill="none" d="M550 200h50v50h-50z"/><path fill="#cce6fff7" d="M600 200h50v50h-50z"/><path fill="#cce6ff7c" d="M700 200h50v50h-50z"/><path fill="none" d="M800 200h50v50h-50zm100 0h50v50h-50zm100 0h50v50h-50zm100 0h50v50h-50zm50 0h50v50h-50zM50 250h50v50H50zm50 0h50v50h-50z"/><path fill="#cce6ffa8" d="M150 250h50v50h-50z"/><path fill="#cce6ff7f" d="M200 250h50v50h-50z"/><path fill="#cce6ffe3" d="M250 250h50v50h-50z"/><path fill="none" d="M350 250h50v50h-50z"/><path fill="#cce6ffe8" d="M400 250h50v50h-50z"/><path fill="none" d="M450 250h50v50h-50zm50 0h50v50h-50zm50 0h50v50h-50zm50 0h50v50h-50zm100 0h50v50h-50zm50 0h50v50h-50zm50 0h50v50h-50z"/><path fill="#cce6ffed" d="M850 250h50v50h-50z"/><path fill="none" d="M900 250h50v50h-50zm50 0h50v50h-50zm100 0h50v50h-50zM0 300h50v50H0zm50 0h50v50H50z"/><path fill="#cce6ff75" d="M100 300h50v50h-50z"/><path fill="none" d="M250 300h50v50h-50zm100 0h50v50h-50zm50 0h50v50h-50zm100 0h50v50h-50zm100 0h50v50h-50z"/><path fill="#cce6ff88" d="M700 300h50v50h-50z"/><path fill="none" d="M750 300h50v50h-50zm50 0h50v50h-50z"/><path fill="#cce6ff9c" d="M900 300h50v50h-50z"/><path fill="none" d="M950 300h50v50h-50zm50 0h50v50h-50zm50 0h50v50h-50z"/><path fill="#cce6ffe7" d="M1100 300h50v50h-50z"/><path fill="#cce6ffd0" d="M1150 300h50v50h-50z"/><path fill="none" d="M50 350h50v50H50z"/><path fill="#cce6ff16" d="M100 350h50v50h-50z"/><path fill="none" d="M150 350h50v50h-50zm50 0h50v50h-50zm50 0h50v50h-50zm100 0h50v50h-50zm50 0h50v50h-50zm50 0h50v50h-50zm50 0h50v50h-50zm50 0h50v50h-50zm200 0h50v50h-50zm50 0h50v50h-50z"/><path fill="#cce6ff8c" d="M850 350h50v50h-50z"/><path fill="#cce6ffb1" d="M950 350h50v50h-50z"/><path fill="none" d="M1000 350h50v50h-50z"/><path fill="#cce6ff1d" d="M1050 350h50v50h-50z"/><path fill="none" d="M1100 350h50v50h-50zm50 0h50v50h-50zM0 400h50v50H0z"/><path fill="#cce6ff7f" d="M50 400h50v50H50z"/><path fill="#cce6ff10" d="M100 400h50v50h-50z"/><path fill="none" d="M200 400h50v50h-50z"/><path fill="#cce6ffdf" d="M250 400h50v50h-50z"/><path fill="none" d="M300 400h50v50h-50zm50 0h50v50h-50zm50 0h50v50h-50z"/><path fill="#cce6ffa6" d="M450 400h50v50h-50z"/><path fill="none" d="M500 400h50v50h-50zm50 0h50v50h-50z"/><path fill="#cce6ff93" d="M600 400h50v50h-50z"/><path fill="none" d="M650 400h50v50h-50zm50 0h50v50h-50z"/><path fill="#cce6ff76" d="M750 400h50v50h-50z"/><path fill="none" d="M800 400h50v50h-50zm50 0h50v50h-50zm100 0h50v50h-50zm100 0h50v50h-50zm50 0h50v50h-50zm50 0h50v50h-50z"/><path fill="#cce6ff34" d="M0 450h50v50H0z"/><path fill="none" d="M50 450h50v50H50zm50 0h50v50h-50zm50 0h50v50h-50zm50 0h50v50h-50z"/><path fill="#cce6ff0d" d="M250 450h50v50h-50z"/><path fill="none" d="M300 450h50v50h-50zm50 0h50v50h-50zm50 0h50v50h-50zm50 0h50v50h-50zm50 0h50v50h-50zm50 0h50v50h-50z"/><path fill="#cce6ff7a" d="M600 450h50v50h-50z"/><path fill="none" d="M650 450h50v50h-50zm50 0h50v50h-50z"/><path fill="#cce6ff0b" d="M750 450h50v50h-50z"/><path fill="#cce6ffd6" d="M800 450h50v50h-50z"/><path fill="none" d="M850 450h50v50h-50zm50 0h50v50h-50zm50 0h50v50h-50z"/><path fill="#cce6ffed" d="M1000 450h50v50h-50z"/><path fill="none" d="M1050 450h50v50h-50z"/><path fill="#cce6fff7" d="M50 500h50v50H50z"/><path fill="none" d="M100 500h50v50h-50zm50 0h50v50h-50zm50 0h50v50h-50z"/><path fill="#cce6ff86" d="M250 500h50v50h-50z"/><path fill="none" d="M300 500h50v50h-50zm50 0h50v50h-50z"/><path fill="#cce6ffab" d="M400 500h50v50h-50z"/><path fill="none" d="M450 500h50v50h-50zm50 0h50v50h-50zm50 0h50v50h-50zm100 0h50v50h-50zm50 0h50v50h-50zm50 0h50v50h-50zm50 0h50v50h-50z"/><path fill="#cce6ff1e" d="M850 500h50v50h-50z"/><path fill="none" d="M1050 500h50v50h-50zm50 0h50v50h-50zm50 0h50v50h-50z"/><path fill="#cce6ff9d" d="M50 550h50v50H50z"/><path fill="#cce6ffbb" d="M200 550h50v50h-50z"/><path fill="none" d="M300 550h50v50h-50zm50 0h50v50h-50zm50 0h50v50h-50zm50 0h50v50h-50zm50 0h50v50h-50z"/><path fill="#cce6fffc" d="M550 550h50v50h-50z"/><path fill="none" d="M650 550h50v50h-50zm200 0h50v50h-50zm50 0h50v50h-50zm50 0h50v50h-50zm50 0h50v50h-50z"/><path fill="#cce6ff55" d="M1100 550h50v50h-50z"/><path fill="none" d="M1150 550h50v50h-50zM100 600h50v50h-50zm50 0h50v50h-50zm50 0h50v50h-50z"/><path fill="#cce6ff0d" d="M250 600h50v50h-50z"/><path fill="#cce6ff8e" d="M300 600h50v50h-50z"/><path fill="#cce6ff37" d="M350 600h50v50h-50z"/><path fill="#cce6ffec" d="M400 600h50v50h-50z"/><path fill="none" d="M500 600h50v50h-50zm50 0h50v50h-50z"/><path fill="#cce6ff56" d="M600 600h50v50h-50z"/><path fill="none" d="M650 600h50v50h-50zm50 0h50v50h-50zm200 0h50v50h-50zm100 0h50v50h-50z"/><path fill="#cce6ff57" d="M1100 600h50v50h-50z"/><path fill="#cce6ff9b" d="M1150 600h50v50h-50z"/><path fill="none" d="M50 650h50v50H50z"/><path fill="#cce6ff5a" d="M100 650h50v50h-50z"/><path fill="#cce6ff8b" d="M150 650h50v50h-50z"/><path fill="none" d="M200 650h50v50h-50zm50 0h50v50h-50z"/><path fill="#cce6ffbb" d="M300 650h50v50h-50z"/><path fill="none" d="M350 650h50v50h-50zm50 0h50v50h-50zm50 0h50v50h-50zm150 0h50v50h-50zm50 0h50v50h-50zm50 0h50v50h-50zm100 0h50v50h-50zm150 0h50v50h-50z"/><path fill="#cce6ffa4" d="M1000 650h50v50h-50z"/><path fill="none" d="M1050 650h50v50h-50zm50 0h50v50h-50zm50 0h50v50h-50z"/><path fill="#cce6ff17" d="M0 700h50v50H0z"/><path fill="#cce6ff49" d="M100 700h50v50h-50z"/><path fill="none" d="M150 700h50v50h-50zm150 0h50v50h-50zm50 0h50v50h-50zm50 0h50v50h-50zm50 0h50v50h-50zm50 0h50v50h-50z"/><path fill="#cce6ffb0" d="M550 700h50v50h-50z"/><path fill="#cce6ff4b" d="M600 700h50v50h-50z"/><path fill="#cce6ff60" d="M650 700h50v50h-50z"/><path fill="#cce6ff92" d="M700 700h50v50h-50z"/><path fill="none" d="M800 700h50v50h-50zm50 0h50v50h-50z"/><path fill="#cce6ffae" d="M1000 700h50v50h-50z"/><path fill="none" d="M1050 700h50v50h-50zm50 0h50v50h-50zm50 0h50v50h-50zM100 750h50v50h-50zm100 0h50v50h-50zm50 0h50v50h-50zm50 0h50v50h-50z"/><path fill="#cce6ffa1" d="M350 750h50v50h-50z"/><path fill="#cce6ff05" d="M400 750h50v50h-50z"/><path fill="#cce6ff72" d="M500 750h50v50h-50z"/><path fill="#cce6ff22" d="M550 750h50v50h-50z"/><path fill="#cce6ff4b" d="M600 750h50v50h-50z"/><path fill="none" d="M650 750h50v50h-50z"/><path fill="#cce6ff4f" d="M700 750h50v50h-50z"/><path fill="#cce6ffca" d="M750 750h50v50h-50z"/><path fill="#cce6ff3a" d="M800 750h50v50h-50z"/><path fill="#cce6ff29" d="M850 750h50v50h-50z"/><path fill="none" d="M900 750h50v50h-50zm50 0h50v50h-50zm100 0h50v50h-50z"/><path fill="#cce6ffe4" d="M1100 750h50v50h-50z"/><path fill="none" d="M1150 750h50v50h-50z"/><path fill="#cce6ff70" d="M0 800h50v50H0z"/><path fill="none" d="M50 800h50v50H50z"/><path fill="#cce6ff3c" d="M100 800h50v50h-50z"/><path fill="#cce6ff5f" d="M150 800h50v50h-50z"/><path fill="#cce6ff98" d="M200 800h50v50h-50z"/><path fill="none" d="M250 800h50v50h-50zm50 0h50v50h-50zm50 0h50v50h-50zm100 0h50v50h-50zm100 0h50v50h-50zm50 0h50v50h-50zm50 0h50v50h-50z"/><path fill="#cce6ff18" d="M700 800h50v50h-50z"/><path fill="none" d="M800 800h50v50h-50zm50 0h50v50h-50zm100 0h50v50h-50zm50 0h50v50h-50zm50 0h50v50h-50zm50 0h50v50h-50zm50 0h50v50h-50zM0 850h50v50H0z"/><path fill="#cce6ff0f" d="M50 850h50v50H50z"/><path fill="none" d="M100 850h50v50h-50zm50 0h50v50h-50zm50 0h50v50h-50zm50 0h50v50h-50zm50 0h50v50h-50zm50 0h50v50h-50z"/><path fill="#cce6ff5d" d="M450 850h50v50h-50z"/><path fill="#cce6ffd5" d="M500 850h50v50h-50z"/><path fill="#cce6ff9f" d="M550 850h50v50h-50z"/><path fill="#cce6ff0d" d="M600 850h50v50h-50z"/><path fill="none" d="M650 850h50v50h-50zm50 0h50v50h-50z"/><path fill="#cce6ff13" d="M750 850h50v50h-50z"/><path fill="none" d="M850 850h50v50h-50z"/><path fill="#cce6ffce" d="M900 850h50v50h-50z"/><path fill="none" d="M950 850h50v50h-50zm50 0h50v50h-50zm50 0h50v50h-50zm50 0h50v50h-50zm50 0h50v50h-50zM0 900h50v50H0zm50 0h50v50H50zm50 0h50v50h-50z"/><path fill="#cce6ff1e" d="M150 900h50v50h-50z"/><path fill="none" d="M200 900h50v50h-50zm50 0h50v50h-50zm50 0h50v50h-50z"/><path fill="#cce6ffff" d="M350 900h50v50h-50z"/><path fill="none" d="M400 900h50v50h-50zm100 0h50v50h-50zm50 0h50v50h-50z"/><path fill="#cce6ff50" d="M650 900h50v50h-50z"/><path fill="none" d="M700 900h50v50h-50zm50 0h50v50h-50zm50 0h50v50h-50zm50 0h50v50h-50z"/><path fill="#cce6ff39" d="M900 900h50v50h-50z"/><path fill="none" d="M950 900h50v50h-50zm50 0h50v50h-50zm100 0h50v50h-50zm50 0h50v50h-50z"/><path fill="#cce6ffd4" d="M100 950h50v50h-50z"/><path fill="#cce6ff24" d="M150 950h50v50h-50z"/><path fill="#cce6ffe5" d="M300 950h50v50h-50z"/><path fill="none" d="M400 950h50v50h-50zm50 0h50v50h-50z"/><path fill="#cce6ff61" d="M500 950h50v50h-50z"/><path fill="none" d="M600 950h50v50h-50zm50 0h50v50h-50zm50 0h50v50h-50zm50 0h50v50h-50zm50 0h50v50h-50zm50 0h50v50h-50zm50 0h50v50h-50zm50 0h50v50h-50zm50 0h50v50h-50zm50 0h50v50h-50zm100 0h50v50h-50zM0 1000h50v50H0z"/><path fill="#cce6ff37" d="M150 1000h50v50h-50z"/><path fill="none" d="M250 1000h50v50h-50zm50 0h50v50h-50z"/><path fill="#cce6ffb6" d="M400 1000h50v50h-50z"/><path fill="none" d="M450 1000h50v50h-50zm50 0h50v50h-50z"/><path fill="#cce6ff85" d="M550 1000h50v50h-50z"/><path fill="#cce6ffd3" d="M600 1000h50v50h-50z"/><path fill="none" d="M800 1000h50v50h-50zm200 0h50v50h-50zM0 1050h50v50H0zm50 0h50v50H50zm50 0h50v50h-50zm100 0h50v50h-50zm50 0h50v50h-50z"/><path fill="#cce6ff31" d="M300 1050h50v50h-50z"/><path fill="none" d="M350 1050h50v50h-50z"/><path fill="#cce6fff2" d="M400 1050h50v50h-50z"/><path fill="none" d="M450 1050h50v50h-50zm50 0h50v50h-50z"/><path fill="#cce6ff8c" d="M550 1050h50v50h-50z"/><path fill="none" d="M600 1050h50v50h-50zm50 0h50v50h-50zm50 0h50v50h-50zm50 0h50v50h-50zm50 0h50v50h-50zm50 0h50v50h-50zm50 0h50v50h-50z"/><path fill="#cce6ff53" d="M950 1050h50v50h-50z"/><path fill="none" d="M1000 1050h50v50h-50zm50 0h50v50h-50z"/><path fill="#cce6ffc7" d="M1100 1050h50v50h-50z"/><path fill="none" d="M1150 1050h50v50h-50zM50 1100h50v50H50zm50 0h50v50h-50z"/><path fill="#cce6ffdc" d="M150 1100h50v50h-50z"/><path fill="none" d="M200 1100h50v50h-50zm50 0h50v50h-50z"/><path fill="#cce6ff3c" d="M300 1100h50v50h-50z"/><path fill="none" d="M350 1100h50v50h-50zm150 0h50v50h-50z"/><path fill="#cce6ffba" d="M550 1100h50v50h-50z"/><path fill="none" d="M600 1100h50v50h-50zm50 0h50v50h-50z"/><path fill="#cce6ff67" d="M700 1100h50v50h-50z"/><path fill="none" d="M750 1100h50v50h-50z"/><path fill="#cce6ff29" d="M800 1100h50v50h-50z"/><path fill="none" d="M850 1100h50v50h-50z"/><path fill="#cce6ff65" d="M900 1100h50v50h-50z"/><path fill="none" d="M950 1100h50v50h-50zm50 0h50v50h-50z"/><path fill="#cce6ff8d" d="M1100 1100h50v50h-50z"/><path fill="none" d="M1150 1100h50v50h-50zM50 1150h50v50H50z"/><path fill="#cce6ffdf" d="M200 1150h50v50h-50z"/><path fill="none" d="M250 1150h50v50h-50zm50 0h50v50h-50zm50 0h50v50h-50zm250 0h50v50h-50zm50 0h50v50h-50zm50 0h50v50h-50zm50 0h50v50h-50z"/><path fill="#cce6ffe6" d="M850 1150h50v50h-50z"/><path fill="none" d="M900 1150h50v50h-50z"/><path fill="#cce6ffa7" d="M950 1150h50v50h-50z"/><path fill="none" d="M1050 1150h50v50h-50z"/><path fill="#cce6ff5e" d="M1100 1150h50v50h-50z"/><path fill="none" d="M1150 1150h50v50h-50z"/></g><path fill="#f3f3f3" filter="url(#c)" opacity=".8" d="M0 0h1200v1200H0z"/><defs><radialGradient id="a"><stop offset="0" stop-color="#fff"/><stop offset="1" stop-color="#fff"/></radialGradient><filter id="c" x="-480" y="-480" width="1680" height="1680" filterUnits="userSpaceOnUse" primitiveUnits="userSpaceOnUse" color-interpolation-filters="linearRGB"><feTurbulence type="fractalNoise" baseFrequency=".115" numOctaves="4" seed="15" stitchTiles="no-stitch" x="0" y="0" width="1200" height="1200" result="turbulence"/><feSpecularLighting surfaceScale="10" specularConstant=".19" specularExponent="20" lighting-color="#fff" x="0" y="0" width="1200" height="1200" in="turbulence" result="specularLighting"><feDistantLight azimuth="3" elevation="100"/></feSpecularLighting></filter></defs></svg>